<svg width="17" height="17" viewBox="0 0 17 17" fill="none" xmlns="http://www.w3.org/2000/svg">
<path d="M6.53825 6.375H5.10014C4.30673 6.375 3.90973 6.375 3.60669 6.52941C3.34013 6.66523 3.12356 6.88179 2.98774 7.14836C2.83333 7.4514 2.83333 7.8484 2.83333 8.6418V12.6085C2.83333 13.4019 2.83333 13.7984 2.98774 14.1014C3.12356 14.368 3.34013 14.5849 3.60669 14.7207C3.90943 14.875 4.30597 14.875 5.09783 14.875H11.9022C12.694 14.875 13.09 14.875 13.3927 14.7207C13.6593 14.5849 13.8766 14.368 14.0124 14.1014C14.1667 13.7987 14.1667 13.4027 14.1667 12.6109V8.63948C14.1667 7.84762 14.1667 7.4511 14.0124 7.14836C13.8766 6.88179 13.6593 6.66523 13.3927 6.52941C13.0897 6.375 12.6935 6.375 11.9001 6.375H10.4613M6.53825 6.375H10.4613M6.53825 6.375C6.44797 6.375 6.375 6.30182 6.375 6.21154V4.25C6.375 3.0764 7.32639 2.125 8.5 2.125C9.6736 2.125 10.625 3.0764 10.625 4.25V6.21154C10.625 6.30182 10.5516 6.375 10.4613 6.375" stroke="#7C7C7C" stroke-width="2" stroke-linecap="round" stroke-linejoin="round"/>
</svg>
