<svg width="19" height="19" viewBox="0 0 19 19" fill="none" xmlns="http://www.w3.org/2000/svg">
<path d="M3.16667 4.75001L8.00188 8.40139L8.00349 8.40272C8.54038 8.79644 8.80898 8.99342 9.10318 9.06951C9.36322 9.13677 9.63657 9.13677 9.89661 9.06951C10.1911 8.99335 10.4605 8.7958 10.9983 8.40139C10.9983 8.40139 14.0996 6.02138 15.8333 4.75001M2.375 12.5085V6.49183C2.375 5.60508 2.375 5.16138 2.54757 4.82268C2.69937 4.52476 2.94142 4.28272 3.23934 4.13092C3.57803 3.95834 4.02174 3.95834 4.90849 3.95834H14.0918C14.9786 3.95834 15.4213 3.95834 15.76 4.13092C16.0579 4.28272 16.3008 4.52476 16.4526 4.82268C16.625 5.16104 16.625 5.60421 16.625 6.48923V12.5112C16.625 13.3962 16.625 13.8387 16.4526 14.1771C16.3008 14.475 16.0579 14.7175 15.76 14.8693C15.4217 15.0417 14.9791 15.0417 14.0941 15.0417H4.90589C4.02087 15.0417 3.5777 15.0417 3.23934 14.8693C2.94142 14.7175 2.69937 14.475 2.54757 14.1771C2.375 13.8384 2.375 13.3952 2.375 12.5085Z" stroke="#7C7C7C" stroke-width="2" stroke-linecap="round" stroke-linejoin="round"/>
</svg>
